<?xml version="1.0" encoding="UTF-8" standalone="no"?>
<!DOCTYPE svg PUBLIC "-//W3C//DTD SVG 1.1//EN" "http://www.w3.org/Graphics/SVG/1.1/DTD/svg11.dtd">
<svg width="100%" height="100%" viewBox="0 0 968 1055" version="1.1" xmlns="http://www.w3.org/2000/svg" xmlns:xlink="http://www.w3.org/1999/xlink" xml:space="preserve" xmlns:serif="http://www.serif.com/" style="fill-rule:evenodd;clip-rule:evenodd;stroke-linejoin:round;stroke-miterlimit:2;">
    <g transform="matrix(1,0,0,1,-516,-472.764)">
        <g>
            <path d="M1484,1416.04C1484,1452.93 1267.31,1482.84 1000,1482.84C732.694,1482.84 516,1452.93 516,1416.04C516,1379.16 732.694,1349.25 1000,1349.25C1267.31,1349.25 1484,1379.16 1484,1416.04Z" style="fill:rgb(255,190,91);fill-rule:nonzero;"/>
            <path d="M1301.05,1354.38C1292.98,1350.77 1285.07,1346.73 1277.45,1342.21C1273.63,1339.96 1269.89,1337.58 1266.21,1335.16C1262.54,1332.71 1258.93,1330.2 1255.36,1327.7C1248.24,1322.64 1241.26,1317.63 1234.1,1312.93C1226.95,1308.22 1219.61,1303.84 1212.08,1299.67C1198.45,1292.16 1184.28,1285.56 1169.69,1279.44L1169.6,1279.62L1169.56,1279.69C1165.67,1287.84 1170.5,1300.53 1182.83,1314.54C1196.44,1329.99 1217.33,1345.14 1241.66,1357.18C1265.98,1369.23 1290.7,1376.66 1311.24,1378.11C1328.82,1379.35 1341.41,1375.98 1346.23,1368.83C1330.74,1365.77 1315.59,1360.8 1301.05,1354.38Z" style="fill:rgb(115,68,50);fill-rule:nonzero;"/>
            <path d="M1301.05,1354.38C1292.98,1350.77 1285.07,1346.73 1277.45,1342.21C1273.63,1339.96 1269.89,1337.58 1266.21,1335.16C1262.54,1332.71 1258.93,1330.2 1255.36,1327.7C1248.24,1322.64 1241.26,1317.63 1234.1,1312.93C1226.95,1308.22 1219.61,1303.84 1212.08,1299.67C1198.45,1292.16 1184.28,1285.56 1169.69,1279.44L1169.6,1279.62L1169.56,1279.69C1169.28,1280.27 1169.06,1280.89 1168.87,1281.53C1180.29,1286.55 1191.44,1291.92 1202.25,1297.88C1209.77,1302.04 1217.11,1306.43 1224.26,1311.14C1231.42,1315.83 1238.4,1320.85 1245.52,1325.9C1249.1,1328.4 1252.7,1330.92 1256.37,1333.36C1260.06,1335.78 1263.79,1338.16 1267.61,1340.42C1275.24,1344.94 1283.15,1348.97 1291.21,1352.58C1305.75,1359.01 1320.9,1363.97 1336.39,1367.04C1331.57,1374.19 1318.98,1377.55 1301.4,1376.31C1298.33,1376.1 1295.15,1375.73 1291.91,1375.25C1298.64,1376.7 1305.13,1377.68 1311.24,1378.11C1328.82,1379.35 1341.41,1375.98 1346.23,1368.83C1330.74,1365.77 1315.59,1360.8 1301.05,1354.38Z" style="fill:rgb(191,132,111);fill-rule:nonzero;"/>
            <path d="M1333.89,1332.35C1320.28,1316.89 1299.39,1301.74 1275.07,1289.7C1261.42,1282.95 1247.66,1277.64 1234.58,1274.03C1224.33,1271.2 1214.51,1269.41 1205.49,1268.77C1187.62,1267.51 1174.91,1271.02 1170.27,1278.41C1185.81,1281.27 1201,1286.23 1215.56,1292.65C1223.64,1296.25 1231.54,1300.35 1239.14,1304.92C1242.95,1307.2 1246.64,1309.62 1250.32,1312.05C1253.96,1314.52 1257.56,1317.04 1261.12,1319.53C1264.67,1322.05 1268.19,1324.55 1271.75,1326.98C1275.27,1329.45 1278.84,1331.81 1282.43,1334.15C1286.02,1336.49 1289.68,1338.72 1293.35,1340.92C1295.17,1342.06 1297.07,1343.08 1298.92,1344.16C1300.77,1345.24 1302.64,1346.31 1304.53,1347.33C1318.17,1354.85 1332.34,1361.48 1346.85,1367.8L1346.94,1367.63L1347.04,1367.45C1347.12,1367.29 1347.19,1367.13 1347.26,1366.97C1350.96,1358.8 1346.12,1346.23 1333.89,1332.35Z" style="fill:rgb(115,68,50);fill-rule:nonzero;"/>
            <path d="M1333.89,1332.35C1320.28,1316.89 1299.39,1301.74 1275.07,1289.7C1261.42,1282.95 1247.66,1277.64 1234.58,1274.03C1227.8,1272.16 1221.21,1270.75 1214.9,1269.82C1218.13,1270.52 1221.41,1271.32 1224.74,1272.24C1237.82,1275.85 1251.58,1281.15 1265.23,1287.91C1289.55,1299.95 1310.45,1315.09 1324.06,1330.55C1335.64,1343.7 1340.58,1355.68 1337.93,1363.84C1340.89,1365.18 1343.86,1366.5 1346.85,1367.8L1346.94,1367.63L1347.04,1367.45C1347.12,1367.29 1347.19,1367.13 1347.26,1366.97C1350.96,1358.8 1346.12,1346.23 1333.89,1332.35Z" style="fill:rgb(191,132,111);fill-rule:nonzero;"/>
            <path d="M1279.49,1382.48C1265.78,1378.7 1251.41,1373.17 1237.22,1366.14C1211.76,1353.54 1189.77,1337.56 1175.33,1321.14C1170.41,1315.56 1166.54,1310.1 1163.73,1304.86C1163.83,1335.86 1187.72,1369.84 1226.01,1388.8C1249.95,1400.65 1275.81,1404.88 1298.84,1400.71C1311.24,1398.46 1321.97,1393.91 1330.53,1387.43C1324.65,1388.38 1317.96,1388.61 1310.53,1388.08C1300.88,1387.4 1290.39,1385.49 1279.49,1382.48Z" style="fill:rgb(115,68,50);fill-rule:nonzero;"/>
            <path d="M1347.03,1367.45L1346.94,1367.63L1346.85,1367.8C1332.34,1361.48 1318.17,1354.85 1304.53,1347.33C1302.64,1346.31 1300.77,1345.24 1298.92,1344.16C1297.07,1343.08 1295.17,1342.06 1293.35,1340.92C1289.68,1338.72 1286.02,1336.49 1282.43,1334.15C1278.84,1331.81 1275.27,1329.45 1271.74,1326.98C1268.19,1324.55 1264.67,1322.05 1261.12,1319.53C1257.56,1317.04 1253.96,1314.52 1250.32,1312.05C1246.64,1309.62 1242.95,1307.2 1239.14,1304.92C1231.54,1300.35 1223.64,1296.25 1215.56,1292.65C1201,1286.23 1185.81,1281.27 1170.27,1278.41C1174.91,1271.02 1187.62,1267.51 1205.49,1268.77C1214.51,1269.41 1224.33,1271.2 1234.58,1274.03C1247.66,1277.64 1261.42,1282.95 1275.07,1289.7C1299.39,1301.74 1320.28,1316.89 1333.89,1332.35C1346.12,1346.23 1350.96,1358.8 1347.26,1366.97C1347.19,1367.13 1347.12,1367.29 1347.03,1367.45ZM1311.24,1378.11C1290.7,1376.66 1265.98,1369.23 1241.66,1357.18C1217.33,1345.14 1196.44,1329.99 1182.83,1314.54C1170.5,1300.53 1165.67,1287.84 1169.56,1279.69L1169.6,1279.62L1169.69,1279.44C1184.28,1285.56 1198.45,1292.16 1212.08,1299.67C1219.61,1303.84 1226.95,1308.22 1234.1,1312.93C1241.26,1317.63 1248.24,1322.64 1255.36,1327.7C1258.93,1330.2 1262.54,1332.71 1266.21,1335.16C1269.89,1337.58 1273.63,1339.96 1277.45,1342.21C1285.07,1346.73 1292.98,1350.77 1301.05,1354.38C1315.59,1360.8 1330.74,1365.77 1346.23,1368.83C1341.41,1375.98 1328.82,1379.35 1311.24,1378.11ZM1298.84,1400.71C1275.81,1404.88 1249.95,1400.65 1226.01,1388.8C1187.72,1369.84 1163.83,1335.86 1163.73,1304.86C1166.54,1310.1 1170.41,1315.56 1175.33,1321.14C1189.77,1337.56 1211.76,1353.54 1237.22,1366.14C1251.41,1373.17 1265.78,1378.7 1279.49,1382.48C1290.39,1385.49 1300.88,1387.4 1310.53,1388.08C1317.96,1388.61 1324.65,1388.38 1330.53,1387.43C1321.97,1393.91 1311.24,1398.46 1298.84,1400.71ZM1341.4,1325.74C1326.95,1309.33 1304.97,1293.35 1279.5,1280.74C1254.04,1268.13 1228,1260.34 1206.19,1258.8C1183.84,1257.22 1168.07,1262.46 1161.5,1273.59L1161.47,1273.62L1161.37,1273.8C1161.31,1273.91 1161.24,1274.02 1161.18,1274.13L1161.1,1274.28L1160.96,1274.55C1160.87,1274.73 1160.77,1274.9 1160.68,1275.08L1160.58,1275.29C1160.51,1275.42 1160.44,1275.55 1160.38,1275.68C1140.26,1316.33 1167.71,1371.1 1221.57,1397.76C1229.91,1401.89 1238.48,1405.16 1247.1,1407.54C1265.22,1412.54 1283.6,1413.63 1300.62,1410.55C1310.13,1408.83 1318.79,1405.88 1326.44,1401.85C1341.12,1391.61 1352.22,1378.53 1358.4,1363.05C1359.21,1352.27 1353.4,1339.37 1341.4,1325.74Z" style="fill-rule:nonzero;"/>
            <path d="M1174.61,570.224C1173.34,573.034 1160,581.074 1111.19,587.734C1074.05,592.804 1026.29,595.824 975.239,596.384C969.539,596.444 963.799,596.474 958.029,596.474C938.049,596.474 918.44,596.094 899.629,595.374C880.949,594.654 863.049,593.584 846.349,592.194C831.479,590.954 817.549,589.464 804.869,587.734C793.309,586.154 783.729,584.504 775.839,582.864C750.259,577.534 742.319,572.324 741.44,570.264L741.579,569.564L741.629,569.344L741.639,569.254L741.649,569.244L751.559,518.444C757.269,521.874 766.949,525.404 783.159,528.804C784.539,529.094 785.959,529.384 787.44,529.674L787.469,529.684L787.519,529.694C805.319,533.164 827.989,536.004 853.649,538.084C868.969,539.323 885.359,540.284 902.419,540.954C920.369,541.654 939.059,542.024 958.029,542.024C1024.56,542.024 1087.74,537.504 1127.42,529.904C1127.76,529.844 1128.1,529.784 1128.43,529.714L1128.47,529.704L1128.53,529.694C1147.41,526.014 1158.29,522.174 1164.5,518.444L1174.43,569.344L1174.48,569.573L1174.61,570.224Z" style="fill:rgb(243,146,0);fill-rule:nonzero;"/>
            <path d="M821.27,524.784C858.802,529.393 907.388,532.024 958.029,532.024C1008.67,532.024 1057.26,529.393 1094.79,524.784C1057.26,520.175 1008.67,517.544 958.029,517.544C907.388,517.544 858.802,520.175 821.27,524.784Z" style="fill:rgb(115,54,20);fill-rule:nonzero;"/>
            <path d="M958.029,532.024C907.388,532.024 858.802,529.393 821.27,524.784C858.802,520.175 907.388,517.544 958.029,517.544C1008.67,517.544 1057.26,520.175 1094.79,524.784C1057.26,529.393 1008.67,532.024 958.029,532.024Z" style="fill:rgb(143,95,23);fill-rule:nonzero;"/>
            <path d="M788.506,519.69C828.18,512.082 891.417,507.544 958.029,507.544C1024.64,507.544 1087.88,512.082 1127.55,519.69C1157.04,513.856 1161.74,508.393 1162.37,507.394C1161.59,506.155 1154.54,498.021 1101.99,490.919C1063.08,485.66 1011.95,482.764 958.029,482.764C904.108,482.764 852.983,485.66 814.072,490.919C761.518,498.021 754.467,506.155 753.686,507.394C754.314,508.393 759.023,513.856 788.506,519.69Z" style="fill:rgb(243,146,0);fill-rule:nonzero;"/>
            <path d="M761.809,512.385C769.621,509.158 784.773,504.878 814.072,500.919C852.983,495.66 904.108,492.764 958.029,492.764C1011.95,492.764 1063.08,495.66 1101.99,500.919C1131.29,504.878 1146.44,509.158 1154.25,512.385C1160.45,509.831 1162.03,507.941 1162.37,507.394C1161.59,506.155 1154.54,498.021 1101.99,490.919C1063.08,485.66 1011.95,482.764 958.029,482.764C904.108,482.764 852.983,485.66 814.072,490.919C761.518,498.021 754.467,506.155 753.686,507.394C754.03,507.941 755.611,509.831 761.809,512.385Z" style="fill:rgb(255,190,91);fill-rule:nonzero;"/>
            <path d="M723.615,617.535C786.186,626.388 869.437,631.264 958.029,631.264C1046.62,631.264 1129.87,626.388 1192.44,617.535C1266.07,607.116 1285.53,594.454 1285.53,589.214C1285.53,586.718 1279.79,580.746 1258.26,574.193C1240.33,568.736 1214.31,563.71 1182.72,559.585L1184.18,567.108C1184.51,568.087 1184.68,569.094 1184.68,570.114L1184.68,570.152L1184.67,570.217C1184.58,579.097 1172.76,584.083 1163.85,587.063C1152.4,590.893 1136.12,594.318 1115.46,597.24C1073.37,603.195 1017.46,606.474 958.029,606.474C898.595,606.474 842.684,603.195 800.596,597.24C779.941,594.318 763.662,590.893 752.21,587.063C743.303,584.083 731.476,579.097 731.384,570.217L731.381,570.152L731.379,570.114C731.379,569.094 731.552,568.088 731.873,567.111L733.341,559.586C701.749,563.711 675.731,568.736 657.8,574.193C636.273,580.746 630.529,586.718 630.529,589.214C630.529,594.454 649.985,607.116 723.615,617.535Z" style="fill:rgb(243,146,0);fill-rule:nonzero;"/>
            <path d="M733.615,617.535C659.984,607.116 640.529,594.454 640.529,589.214C640.529,586.718 646.273,580.746 667.8,574.193C683.745,569.34 706.099,564.831 733.067,560.99L733.341,559.586C701.749,563.711 675.731,568.736 657.8,574.193C636.273,580.746 630.529,586.718 630.529,589.214C630.529,594.454 649.985,607.116 723.615,617.535C786.186,626.388 869.437,631.264 958.029,631.264C959.699,631.264 961.363,631.259 963.029,631.255C876.31,631.075 795.007,626.221 733.615,617.535Z" style="fill:rgb(255,190,91);fill-rule:nonzero;"/>
            <path d="M958.029,612.28C896.505,612.28 838.629,608.446 795.061,601.483C773.68,598.066 756.828,594.063 744.974,589.585C735.754,586.1 723.511,580.272 723.415,569.889L723.413,569.813L723.411,569.768C723.411,568.576 723.589,567.4 723.922,566.258L724.616,562.239C727.38,561.815 730.197,561.399 733.067,560.99L731.873,567.111C731.552,568.088 731.379,569.094 731.379,570.114L731.381,570.152L731.384,570.217C731.476,579.097 743.303,584.083 752.21,587.063C763.662,590.893 779.941,594.318 800.596,597.24C842.684,603.195 898.595,606.474 958.029,606.474C1017.46,606.474 1073.37,603.195 1115.46,597.24C1136.12,594.318 1152.4,590.893 1163.85,587.063C1172.76,584.083 1184.58,579.097 1184.67,570.217L1184.68,570.152L1184.68,570.114C1184.68,569.094 1184.51,568.087 1184.18,567.108L1182.72,559.585C1185.59,559.961 1188.4,560.346 1191.18,560.736L1192.14,566.254C1192.47,567.399 1192.65,568.576 1192.65,569.768L1192.65,569.813L1192.64,569.889C1192.55,580.272 1180.31,586.1 1171.08,589.585C1159.23,594.063 1142.38,598.066 1121,601.483C1077.43,608.446 1019.55,612.28 958.029,612.28Z" style="fill:rgb(143,95,23);fill-rule:nonzero;"/>
            <path d="M724.616,562.239L724.876,560.736C727.544,560.362 730.24,559.992 732.994,559.631C733.044,559.625 733.095,559.618 733.145,559.612C733.211,559.603 733.276,559.594 733.341,559.586L733.067,560.99C730.197,561.399 727.38,561.815 724.616,562.239Z" style="fill:rgb(95,72,52);fill-rule:nonzero;"/>
            <path d="M1304.95,689.134C1304.59,691.164 1300.31,700.414 1253.59,710.744C1188.81,725.054 1078.32,733.604 958.029,733.604C953.38,733.604 948.739,733.594 944.119,733.564C924.98,733.464 906.119,733.134 887.699,732.614C886.879,732.594 886.049,732.564 885.23,732.544C860.199,731.794 835.979,730.674 812.969,729.204C812.659,729.184 812.359,729.164 812.049,729.144C754.539,725.434 704.509,719.534 667.819,711.883C665.999,711.514 664.219,711.134 662.469,710.744C615.749,700.414 611.469,691.174 611.109,689.134L611.539,686.944L611.549,686.904L628.149,601.884C633.009,605.574 640.259,608.994 650.069,612.274C658.269,615.014 668.159,617.624 679.639,620.073C691.999,622.714 706.219,625.174 722.21,627.434C749.309,631.274 780.239,634.364 813.769,636.644C817.219,636.884 820.69,637.104 824.189,637.324L824.409,637.334C841.309,638.384 858.829,639.224 876.809,639.864C880.659,639.994 884.529,640.124 888.419,640.234C911.059,640.914 934.359,641.264 958.029,641.264C1030.47,641.264 1099.4,638.014 1156.52,632.004C1169.62,630.624 1182.09,629.094 1193.85,627.434C1224.68,623.074 1248.95,617.974 1265.99,612.274C1275.79,608.994 1283.05,605.574 1287.91,601.884L1304.51,686.894L1304.52,686.944L1304.95,689.134Z" style="fill:rgb(243,146,0);fill-rule:nonzero;"/>
            <path d="M1201.45,1383.23L1201.46,1383.4L1201.45,1383.53C1201.42,1383.63 1198.21,1393.83 1130.31,1402.74C1083.92,1408.82 1022.74,1412.17 958.029,1412.17C893.319,1412.17 832.139,1408.82 785.749,1402.74C760.379,1399.41 744.049,1395.91 733.529,1392.81L733.519,1392.81C716.419,1387.78 714.719,1383.84 714.619,1383.55L714.599,1383.39L714.609,1383.23L667.73,733.904L666.859,721.904C733.029,735.524 840.999,743.604 958.029,743.604C1075.06,743.604 1183.03,735.524 1249.2,721.904L1201.45,1383.23Z" style="fill:rgb(79,193,234);fill-rule:nonzero;"/>
            <path d="M687.118,725.681C679.997,724.474 673.23,723.213 666.855,721.901L714.606,1383.23L714.602,1383.39L714.619,1383.55C714.72,1383.84 716.428,1387.78 733.526,1392.81L687.118,725.681Z" style="fill:rgb(194,224,235);fill-rule:nonzero;"/>
            <path d="M1253.59,710.741C1188.81,725.057 1078.32,733.604 958.029,733.604C837.742,733.604 727.251,725.057 662.468,710.741C615.752,700.413 611.469,691.169 611.11,689.132L611.537,686.945L611.546,686.9L628.146,601.888C633.013,605.57 640.264,608.99 650.072,612.272C667.105,617.971 691.377,623.073 722.214,627.436C785.235,636.354 868.983,641.264 958.029,641.264C1047.08,641.264 1130.82,636.354 1193.84,627.436C1224.68,623.073 1248.95,617.971 1265.99,612.272C1275.79,608.99 1283.04,605.57 1287.91,601.889L1304.51,686.894L1304.52,686.948L1304.95,689.131C1304.59,691.166 1300.31,700.411 1253.59,710.741ZM1201.45,1383.23L1201.46,1383.41L1201.44,1383.53C1201.42,1383.64 1198.21,1393.84 1130.31,1402.74C1083.92,1408.82 1022.74,1412.17 958.029,1412.17C893.32,1412.17 832.135,1408.82 785.746,1402.74C719.119,1394 714.781,1384.02 714.619,1383.55L714.602,1383.39L714.606,1383.23L666.855,721.901C733.027,735.523 841,743.604 958.029,743.604C1075.06,743.604 1183.03,735.523 1249.2,721.901L1201.45,1383.23ZM657.8,574.193C675.731,568.736 701.749,563.711 733.341,559.586L731.873,567.111C731.552,568.088 731.379,569.094 731.379,570.114L731.381,570.152L731.384,570.217C731.476,579.097 743.303,584.083 752.21,587.063C763.662,590.893 779.941,594.318 800.596,597.24C842.684,603.195 898.595,606.474 958.029,606.474C1017.46,606.474 1073.37,603.195 1115.46,597.24C1136.12,594.318 1152.4,590.893 1163.85,587.063C1172.76,584.083 1184.58,579.097 1184.67,570.217L1184.68,570.152L1184.68,570.114C1184.68,569.094 1184.51,568.087 1184.18,567.108L1182.72,559.585C1214.31,563.71 1240.33,568.736 1258.26,574.193C1279.79,580.746 1285.53,586.718 1285.53,589.214C1285.53,594.454 1266.07,607.116 1192.44,617.535C1129.87,626.388 1046.62,631.264 958.029,631.264C869.437,631.264 786.186,626.388 723.615,617.535C649.985,607.116 630.529,589.214 630.529,589.214C630.529,589.214 632.506,586.3 638.486,582.567C642.7,579.938 648.902,576.902 657.8,574.193ZM741.577,569.567L741.627,569.34L741.643,569.256L741.644,569.249L751.557,518.448C757.761,522.163 768.618,526.006 787.436,529.674L787.466,529.68L787.523,529.691C827.131,537.413 890.872,542.024 958.029,542.024C1025.13,542.024 1088.82,537.421 1128.43,529.711L1128.47,529.703L1128.53,529.691C1147.41,526.017 1158.29,522.169 1164.5,518.448L1174.43,569.34L1174.48,569.578L1174.61,570.227C1173.34,573.036 1160,581.079 1111.19,587.737C1069.9,593.371 1015.5,596.474 958.029,596.474C900.557,596.474 846.163,593.371 804.867,587.737C755.833,581.048 742.593,572.96 741.442,570.268L741.577,569.567ZM1094.79,524.784C1064.05,528.559 985.261,531.77 985.261,531.77C985.261,531.77 967.191,532.024 958.029,532.024C947.81,532.024 937.674,531.917 927.696,531.708C888.229,530.882 851.228,528.463 821.27,524.784C852.07,521.002 890.315,518.551 931.03,517.794C939.929,517.629 948.946,517.544 958.029,517.544C968.797,517.544 979.473,517.663 989.97,517.895C1028.84,518.752 1065.24,521.155 1094.79,524.784ZM814.072,490.919C852.983,485.66 904.108,482.764 958.029,482.764C1011.95,482.764 1063.08,485.66 1101.99,490.919C1154.54,498.021 1161.59,506.155 1162.37,507.394C1161.74,508.393 1157.04,513.856 1127.55,519.69C1087.88,512.082 1024.64,507.544 958.029,507.544C948.042,507.544 938.13,507.646 928.363,507.845C872.984,508.974 822.232,513.223 788.506,519.69C759.023,513.856 754.314,508.393 753.686,507.394C754.467,506.155 761.517,498.021 814.072,490.919ZM1295.51,588.609C1295.06,579.247 1284.12,571.612 1261.17,564.627C1241.82,558.736 1214.74,553.567 1180.7,549.247L1172.42,506.835C1172.05,499.182 1163.59,489.523 1106.8,481.49C1067.03,475.863 1014.2,472.764 958.029,472.764C901.864,472.764 849.028,475.863 809.255,481.49C752.471,489.523 744.006,499.182 743.634,506.835L735.358,549.247C701.315,553.567 674.241,558.736 654.889,564.627C631.942,571.611 621.003,579.246 620.551,588.607L601.767,684.806C601.32,686.116 601.079,687.459 601.079,688.814L601.08,688.845L601.08,688.88C601.113,696.676 607.083,708.243 656.67,719.682L704.632,1383.95L704.636,1383.97C704.987,1393.13 717.881,1398.31 727.619,1401.42C740.408,1405.51 758.606,1409.17 781.708,1412.29C828.847,1418.66 891.465,1422.17 958.029,1422.17C1024.59,1422.17 1087.21,1418.66 1134.35,1412.29C1157.45,1409.17 1175.65,1405.51 1188.44,1401.42C1198.18,1398.31 1211.07,1393.13 1211.42,1383.98L1211.43,1383.95L1259.39,719.682C1308.97,708.245 1314.94,696.68 1314.98,688.885L1314.98,688.814C1314.98,687.462 1314.74,686.12 1314.29,684.811L1295.51,588.609Z" style="fill-rule:nonzero;"/>
            <path d="M679.639,620.074L667.819,711.884C665.999,711.514 664.219,711.134 662.469,710.744C615.749,700.414 611.469,691.174 611.109,689.134L611.539,686.944L611.549,686.904L628.149,601.884C633.009,605.574 640.259,608.994 650.069,612.274C658.269,615.014 668.159,617.624 679.639,620.074Z" style="fill:rgb(255,190,91);fill-rule:nonzero;"/>
            <path d="M888.419,640.234L887.779,722.684L887.699,732.614C886.879,732.594 886.049,732.564 885.229,732.544C860.199,731.794 835.979,730.674 812.969,729.204C813.709,723.954 814.489,718.204 815.279,712.114C818.309,688.764 821.579,660.534 824.189,637.324L824.409,637.334L888.419,640.234Z" style="fill:rgb(255,190,91);fill-rule:nonzero;"/>
            <path d="M902.419,540.954L899.629,595.374C880.949,594.654 863.049,593.584 846.349,592.194C848.769,575.004 851.339,555.754 853.649,538.084C868.969,539.324 885.359,540.284 902.419,540.954Z" style="fill:rgb(255,190,91);fill-rule:nonzero;"/>
            <path d="M783.159,528.804L775.839,582.864C750.259,577.534 742.319,572.324 741.439,570.264L741.579,569.564L741.629,569.344L741.639,569.254L741.649,569.244L751.559,518.444C757.269,521.874 766.949,525.404 783.159,528.804Z" style="fill:rgb(255,190,91);fill-rule:nonzero;"/>
            <path d="M975.092,596.382C932.667,595.933 918.803,595.424 981.699,595.424C1123.42,595.424 1129.32,546.139 1127.42,529.906C1127.48,529.895 1127.53,529.885 1127.59,529.874C1127.87,529.824 1128.15,529.772 1128.43,529.714L1128.47,529.704L1128.53,529.694C1131.71,529.074 1134.66,528.45 1137.4,527.823C1140.51,527.112 1143.35,526.396 1145.94,525.678L1145.94,525.677C1150.62,524.379 1154.49,523.074 1157.69,521.772C1160.42,520.659 1162.66,519.548 1164.5,518.449L1174.43,569.344L1174.48,569.573L1174.59,570.125L1174.61,570.225C1173.34,573.036 1159.99,581.074 1111.19,587.734C1084.44,591.385 1052.17,593.974 1017.14,595.345C1017.12,595.346 1017.1,595.347 1017.07,595.348L1017.06,595.349C1003.44,595.88 989.392,596.228 975.092,596.382Z" style="fill:rgb(143,95,23);fill-rule:nonzero;"/>
            <path d="M975.239,596.384C975.19,596.383 975.141,596.383 975.092,596.382C989.392,596.228 1003.44,595.88 1017.06,595.349C1003.48,595.879 989.488,596.227 975.239,596.384ZM1017.07,595.348C1017.1,595.347 1017.12,595.346 1017.14,595.345C1017.12,595.346 1017.1,595.347 1017.07,595.348ZM1174.61,570.225L1174.59,570.125L1174.61,570.224L1174.61,570.225ZM1127.42,529.906L1127.42,529.904C1127.47,529.894 1127.53,529.884 1127.59,529.874C1127.53,529.885 1127.48,529.895 1127.42,529.906ZM1137.4,527.823C1140.51,527.112 1143.35,526.396 1145.94,525.678C1143.35,526.396 1140.51,527.112 1137.4,527.823ZM1157.69,521.772C1160.42,520.658 1162.66,519.546 1164.5,518.444L1164.5,518.449C1162.66,519.548 1160.42,520.659 1157.69,521.772Z" style="fill-rule:nonzero;"/>
            <path d="M958.029,733.604L957.351,733.604C953.784,733.603 950.22,733.594 946.671,733.578C945.82,733.574 944.969,733.569 944.119,733.564C950.669,732.944 959.769,732.614 971.699,732.614C1171.03,732.614 1158.29,641.154 1156.52,632.004C1160.66,631.568 1164.73,631.117 1168.74,630.651C1177.43,629.646 1185.81,628.574 1193.84,627.436C1199.96,626.571 1205.81,625.677 1211.4,624.756C1234.01,621.029 1252.33,616.844 1265.99,612.274C1273.18,609.869 1279,607.388 1283.51,604.781C1285.15,603.834 1286.61,602.871 1287.91,601.89L1304.51,686.894L1304.52,686.944L1304.88,688.776L1304.95,689.131C1304.88,689.532 1304.66,690.212 1303.99,691.126C1302.61,693 1299.36,695.857 1291.68,699.29C1284.1,702.676 1272.22,706.622 1253.59,710.741C1240,713.744 1224.41,716.492 1207.13,718.961C1142.52,728.195 1054.42,733.525 960.151,733.603C959.447,733.604 958.734,733.604 958.029,733.604Z" style="fill:rgb(143,95,23);fill-rule:nonzero;"/>
            <path d="M958.029,733.604C958.734,733.604 959.447,733.604 960.151,733.603C959.447,733.604 958.734,733.604 958.029,733.604ZM957.351,733.604C953.783,733.603 950.222,733.596 946.671,733.578C950.22,733.594 953.784,733.603 957.351,733.604ZM1207.13,718.961C1224.41,716.492 1240,713.744 1253.59,710.741C1272.22,706.622 1284.1,702.676 1291.68,699.29C1284.1,702.677 1272.22,706.624 1253.59,710.744C1240,713.745 1224.41,716.493 1207.13,718.961ZM1303.99,691.126C1304.66,690.212 1304.88,689.532 1304.95,689.131L1304.88,688.776L1304.95,689.134C1304.88,689.533 1304.66,690.213 1303.99,691.126ZM1168.74,630.651C1177.43,629.644 1185.8,628.569 1193.85,627.434C1199.96,626.57 1205.81,625.677 1211.4,624.756C1205.81,625.677 1199.96,626.571 1193.84,627.436C1185.81,628.574 1177.43,629.646 1168.74,630.651ZM1283.51,604.781C1285.15,603.833 1286.61,602.868 1287.91,601.884L1287.91,601.89C1286.61,602.871 1285.15,603.834 1283.51,604.781Z" style="fill-rule:nonzero;"/>
            <path d="M1201.45,1383.23L1201.46,1383.4L1201.45,1383.53C1201.42,1383.63 1198.21,1393.83 1130.31,1402.74C1083.92,1408.82 1022.74,1412.17 958.029,1412.17C893.319,1412.17 832.139,1408.82 785.749,1402.74C760.379,1399.41 744.049,1395.91 733.529,1392.81C1219.9,1392.81 1184.6,773.914 1184.6,773.914C871.739,801.304 681.989,738.804 667.73,733.904L666.859,721.904C733.029,735.524 840.999,743.604 958.029,743.604C1075.06,743.604 1183.03,735.524 1249.2,721.904L1201.45,1383.23Z" style="fill:rgb(24,133,172);fill-rule:nonzero;"/>
            <path d="M944.931,1110.81C939.032,1142.99 940.604,1177.15 949.596,1212.69C952.39,1212.93 955.196,1213.04 958.029,1213.04C1030.51,1213.04 1089.27,1134.51 1089.27,1037.62C1089.27,951.901 1043.27,880.538 982.458,865.244C995.271,892.532 1001.35,919.936 1000.58,947.133C999.558,983.581 986.837,1008.48 973.375,1034.84C962.252,1056.62 950.739,1079.14 944.931,1110.81Z" style="fill:white;fill-rule:nonzero;"/>
            <path d="M826.789,1037.62C826.789,1117.52 866.746,1184.94 921.412,1206.12C914.213,1171.54 913.524,1138.04 919.372,1106.13C925.869,1070.72 938.811,1045.37 950.233,1023.02C962.85,998.316 973.752,976.98 974.61,946.392C975.376,918.832 967.723,890.687 951.766,862.411C882.196,866.764 826.789,943.546 826.789,1037.62Z" style="fill:white;fill-rule:nonzero;"/>
            <path d="M618.154,1352.61C625.917,1356.83 633.926,1360.66 642.149,1363.98C646.257,1365.64 650.418,1367.17 654.579,1368.62C658.752,1370.06 662.937,1371.4 667.091,1372.72C675.429,1375.31 683.656,1377.81 691.73,1380.65C699.813,1383.47 707.758,1386.64 715.634,1390.09C729.878,1396.36 743.729,1403.62 757.447,1411.5L757.363,1411.68L757.329,1411.75C753.208,1419.79 740.201,1423.66 721.582,1422.36C701.037,1420.93 676.318,1413.53 651.981,1401.5C627.642,1389.49 606.736,1374.36 593.111,1358.92C581.45,1345.7 576.486,1333.65 579.24,1325.48C591.079,1335.93 604.222,1344.96 618.154,1352.61Z" style="fill:rgb(115,68,50);fill-rule:nonzero;"/>
            <path d="M731.582,1422.36C711.037,1420.93 686.318,1413.53 661.981,1401.5C637.642,1389.49 616.736,1374.36 603.111,1358.92C594.775,1349.47 589.883,1340.63 588.765,1333.36C585.508,1330.83 582.328,1328.21 579.24,1325.48C576.486,1333.65 581.45,1345.7 593.111,1358.92C606.736,1374.36 627.642,1389.49 651.981,1401.5C676.318,1413.53 701.037,1420.93 721.582,1422.36C725.771,1422.66 729.657,1422.67 733.24,1422.45C732.687,1422.42 732.146,1422.4 731.582,1422.36Z" style="fill:rgb(191,132,111);fill-rule:nonzero;"/>
            <path d="M615.722,1313.13C636.268,1314.57 660.985,1321.97 685.322,1333.99C698.973,1340.73 711.543,1348.45 722.355,1356.66C730.822,1363.08 738.209,1369.8 744.193,1376.58C756.044,1390.01 760.971,1402.23 757.917,1410.41C746.203,1399.8 733.043,1390.74 719.104,1383.07C711.342,1378.83 703.284,1375.05 695.038,1371.79C690.92,1370.14 686.746,1368.67 682.583,1367.22C678.412,1365.83 674.229,1364.5 670.088,1363.18C665.931,1361.89 661.803,1360.61 657.719,1359.26C653.613,1357.96 649.567,1356.55 645.53,1355.12C641.493,1353.69 637.502,1352.14 633.516,1350.56C631.509,1349.8 629.554,1348.91 627.568,1348.09C625.58,1347.28 623.599,1346.44 621.638,1345.56C607.385,1339.29 593.514,1332.06 579.682,1324.36L579.76,1324.19L579.851,1324C579.925,1323.84 580.009,1323.69 580.092,1323.53C584.336,1315.64 597.273,1311.85 615.722,1313.13Z" style="fill:rgb(115,68,50);fill-rule:nonzero;"/>
            <path d="M729.104,1383.07C721.342,1378.83 713.284,1375.05 705.038,1371.79C700.92,1370.14 696.746,1368.67 692.583,1367.22C688.412,1365.83 684.229,1364.5 680.088,1363.18C675.931,1361.89 671.803,1360.61 667.719,1359.26C663.613,1357.96 659.567,1356.55 655.53,1355.12C651.493,1353.69 647.502,1352.14 643.516,1350.56C641.509,1349.8 639.554,1348.91 637.568,1348.09C635.58,1347.28 633.599,1346.44 631.638,1345.56C617.385,1339.29 603.514,1332.06 589.682,1324.36L589.76,1324.19L589.851,1324C589.925,1323.84 590.009,1323.69 590.092,1323.53C593.373,1317.43 601.862,1313.79 614.06,1313.05C596.505,1312.1 584.207,1315.88 580.092,1323.53C580.009,1323.69 579.925,1323.84 579.851,1324L579.76,1324.19L579.682,1324.36C593.514,1332.06 607.385,1339.29 621.638,1345.56C623.599,1346.44 625.58,1347.28 627.568,1348.09C629.554,1348.91 631.509,1349.8 633.516,1350.56C637.502,1352.14 641.493,1353.69 645.53,1355.12C649.567,1356.55 653.613,1357.96 657.719,1359.26C661.803,1360.61 665.931,1361.89 670.088,1363.18C674.229,1364.5 678.412,1365.83 682.583,1367.22C686.746,1368.67 690.92,1370.14 695.038,1371.79C703.284,1375.05 711.342,1378.83 719.104,1383.07C733.043,1390.74 746.203,1399.8 757.917,1410.41C758.784,1408.09 758.985,1405.43 758.59,1402.53C749.372,1395.23 739.455,1388.76 729.104,1383.07Z" style="fill:rgb(191,132,111);fill-rule:nonzero;"/>
            <path d="M608.907,1386.8C620.242,1395.4 633.356,1403.46 647.553,1410.47C673.03,1423.05 699.074,1430.82 720.887,1432.34C728.306,1432.86 734.996,1432.62 740.869,1431.67C716.174,1450.41 674.666,1452.06 636.36,1433.14C612.404,1421.31 593.342,1403.32 582.679,1382.49C576.938,1371.27 574.035,1359.98 573.992,1349.25C576.809,1354.49 580.689,1359.95 585.612,1365.53C592.017,1372.79 599.901,1379.97 608.907,1386.8Z" style="fill:rgb(115,68,50);fill-rule:nonzero;"/>
            <path d="M586.548,1366.56C586.517,1366.53 586.486,1366.51 586.455,1366.48C586.171,1366.16 585.89,1365.85 585.612,1365.53C585.915,1365.88 586.238,1366.22 586.548,1366.56ZM584.034,1363.71C579.853,1358.76 576.501,1353.92 573.992,1349.25C576.501,1353.92 579.853,1358.76 584.034,1363.71Z" style="fill:rgb(125,119,112);fill-rule:nonzero;"/>
            <path d="M586.455,1366.48C582.493,1362.87 578.86,1359.21 575.612,1355.53C575.126,1354.98 574.658,1354.43 574.193,1353.89C574.07,1352.33 573.999,1350.78 573.992,1349.25C576.501,1353.92 579.853,1358.76 584.034,1363.71C584.548,1364.31 585.074,1364.92 585.612,1365.53C585.89,1365.85 586.171,1366.16 586.455,1366.48Z" style="fill:rgb(57,34,25);fill-rule:nonzero;"/>
            <path d="M691.45,1446.55L691.431,1446.55L691.45,1446.55ZM691.465,1446.55C710.413,1446.55 727.666,1441.53 740.48,1431.96C727.664,1441.53 710.416,1446.55 691.465,1446.55ZM637.265,1433.58C637.193,1433.55 637.119,1433.51 637.046,1433.48C637.119,1433.51 637.193,1433.55 637.265,1433.58ZM637.005,1433.46C637.001,1433.45 636.993,1433.45 636.988,1433.45C636.993,1433.45 637.001,1433.45 637.005,1433.46ZM636.74,1433.33C636.614,1433.26 636.486,1433.2 636.36,1433.14C636.486,1433.2 636.614,1433.26 636.74,1433.33ZM636.197,1433.06C636.18,1433.05 636.163,1433.04 636.146,1433.03C636.163,1433.04 636.18,1433.05 636.197,1433.06ZM636.027,1432.97C636.012,1432.97 635.995,1432.96 635.98,1432.95C635.996,1432.96 636.011,1432.97 636.027,1432.97ZM635.836,1432.88C635.829,1432.88 635.823,1432.87 635.817,1432.87C635.822,1432.87 635.83,1432.88 635.836,1432.88ZM635.642,1432.78L635.641,1432.78L635.642,1432.78ZM635.471,1432.7C635.464,1432.69 635.459,1432.69 635.453,1432.69C635.458,1432.69 635.465,1432.69 635.471,1432.7ZM728.328,1432.61L728.316,1432.61L728.328,1432.61ZM728.35,1432.61C732.755,1432.61 736.853,1432.3 740.616,1431.71C736.852,1432.3 732.756,1432.61 728.35,1432.61ZM721.393,1432.37L721.292,1432.37L721.393,1432.37ZM721.205,1432.36C721.16,1432.36 721.115,1432.36 721.07,1432.35C721.115,1432.36 721.16,1432.36 721.205,1432.36ZM720.887,1432.34C718.146,1432.15 715.338,1431.86 712.473,1431.47C715.338,1431.86 718.146,1432.15 720.887,1432.34ZM740.671,1431.82C740.738,1431.77 740.802,1431.72 740.869,1431.67C740.802,1431.72 740.738,1431.77 740.671,1431.82ZM740.75,1431.69C740.79,1431.68 740.829,1431.68 740.869,1431.67C740.829,1431.68 740.79,1431.68 740.75,1431.69Z" style="fill:rgb(99,69,44);fill-rule:nonzero;"/>
            <path d="M691.465,1446.55L691.431,1446.55C674.098,1446.55 655.34,1442.34 637.265,1433.58C637.193,1433.55 637.119,1433.51 637.046,1433.48C637.032,1433.47 637.019,1433.46 637.005,1433.46C637.001,1433.45 636.993,1433.45 636.988,1433.45C636.904,1433.41 636.824,1433.37 636.74,1433.33C636.614,1433.26 636.486,1433.2 636.36,1433.14C636.305,1433.11 636.251,1433.09 636.197,1433.06C636.18,1433.05 636.163,1433.04 636.146,1433.03C636.106,1433.01 636.067,1432.99 636.027,1432.97C636.011,1432.97 635.996,1432.96 635.98,1432.95C635.931,1432.93 635.884,1432.9 635.836,1432.88C635.83,1432.88 635.822,1432.87 635.817,1432.87C635.759,1432.84 635.7,1432.81 635.642,1432.78L635.641,1432.78C635.584,1432.75 635.527,1432.72 635.471,1432.7C635.465,1432.69 635.458,1432.69 635.453,1432.69C620.486,1425.16 607.481,1415.21 597.278,1403.68C605.767,1411.21 615.559,1417.81 626.359,1423.14C644.722,1432.21 663.821,1436.55 681.45,1436.55C692.558,1436.55 703.083,1434.83 712.473,1431.47C715.338,1431.86 718.146,1432.15 720.887,1432.34C720.948,1432.34 721.009,1432.35 721.07,1432.35C721.115,1432.36 721.16,1432.36 721.205,1432.36C721.234,1432.36 721.263,1432.37 721.292,1432.37L721.393,1432.37C723.778,1432.53 726.086,1432.61 728.316,1432.61L728.35,1432.61C732.756,1432.61 736.852,1432.3 740.616,1431.71C740.661,1431.7 740.706,1431.7 740.75,1431.69C740.79,1431.68 740.829,1431.68 740.869,1431.67C740.802,1431.72 740.738,1431.77 740.671,1431.82C740.608,1431.87 740.544,1431.92 740.48,1431.96C727.666,1441.53 710.413,1446.55 691.465,1446.55Z" style="fill:rgb(57,34,25);fill-rule:nonzero;"/>
            <path d="M580.092,1323.53C584.336,1315.64 597.273,1311.85 615.722,1313.13C636.268,1314.57 660.985,1321.97 685.322,1333.99C698.973,1340.73 711.543,1348.45 722.355,1356.66C730.822,1363.08 738.209,1369.8 744.193,1376.58C756.044,1390.01 760.971,1402.23 757.917,1410.41C746.203,1399.8 733.043,1390.74 719.104,1383.07C711.342,1378.83 703.284,1375.05 695.038,1371.79C690.92,1370.14 686.746,1368.67 682.583,1367.22C678.412,1365.83 674.229,1364.5 670.088,1363.18C665.931,1361.89 661.803,1360.61 657.719,1359.26C653.613,1357.96 649.567,1356.55 645.53,1355.12C641.493,1353.69 637.502,1352.14 633.516,1350.56C631.509,1349.8 629.554,1348.91 627.568,1348.09C625.58,1347.28 623.599,1346.44 621.638,1345.56C607.385,1339.29 593.514,1332.06 579.682,1324.36L579.76,1324.19L579.851,1324C579.925,1323.84 580.009,1323.69 580.092,1323.53ZM579.24,1325.48C591.079,1335.93 604.222,1344.96 618.154,1352.61C625.917,1356.83 633.926,1360.66 642.149,1363.98C646.257,1365.64 650.418,1367.17 654.579,1368.62C658.752,1370.06 662.937,1371.4 667.091,1372.72C675.429,1375.31 683.656,1377.81 691.73,1380.65C699.813,1383.47 707.758,1386.64 715.634,1390.09C729.878,1396.36 743.729,1403.62 757.447,1411.5L757.363,1411.68L757.329,1411.75C753.208,1419.79 740.201,1423.66 721.582,1422.36C701.037,1420.93 676.318,1413.53 651.981,1401.5C627.642,1389.49 606.736,1374.36 593.111,1358.92C581.45,1345.7 576.486,1333.65 579.24,1325.48ZM573.992,1349.25C576.809,1354.49 580.689,1359.95 585.612,1365.53C592.017,1372.79 599.901,1379.97 608.907,1386.8C620.242,1395.4 633.355,1403.46 647.553,1410.47C673.03,1423.05 699.074,1430.82 720.887,1432.34C728.306,1432.86 734.997,1432.62 740.869,1431.67C716.174,1450.41 674.666,1452.06 636.359,1433.14C612.404,1421.31 593.342,1403.32 582.679,1382.49C576.938,1371.27 574.035,1359.98 573.992,1349.25ZM576.448,1312.3C567.894,1326.61 564.24,1343.37 565.016,1361.25C566.456,1369.78 569.376,1378.45 573.777,1387.05C581.66,1402.45 593.683,1416.39 608.659,1427.75C615.79,1433.16 623.588,1437.99 631.931,1442.11C685.82,1468.72 746.002,1457.28 766.087,1416.62C766.15,1416.49 766.213,1416.35 766.275,1416.22L766.383,1416.01C766.473,1415.83 766.551,1415.65 766.636,1415.47L766.765,1415.2L766.832,1415.04C766.883,1414.92 766.934,1414.8 766.983,1414.69L767.063,1414.5L767.074,1414.46C771.921,1402.48 766.517,1386.77 751.692,1369.96C737.227,1353.57 715.229,1337.61 689.751,1325.03C664.273,1312.44 638.23,1304.68 616.417,1303.16C598.301,1301.9 584.517,1305.11 576.448,1312.3Z" style="fill-rule:nonzero;"/>
            <path d="M1279.07,1356.74C1287.28,1360.01 1295.69,1362.87 1304.24,1365.19C1308.52,1366.35 1312.83,1367.37 1317.14,1368.33C1321.45,1369.26 1325.76,1370.09 1330.05,1370.91C1338.63,1372.5 1347.1,1374 1355.45,1375.87C1363.81,1377.71 1372.07,1379.92 1380.3,1382.42C1395.19,1386.96 1409.8,1392.52 1424.36,1398.73L1424.29,1398.91L1424.27,1398.99C1421.13,1407.46 1408.67,1412.84 1390.03,1413.76C1369.46,1414.77 1344.04,1410.34 1318.45,1401.29C1292.86,1392.23 1270.31,1379.69 1254.95,1365.97C1241.81,1354.22 1235.45,1342.85 1237.22,1334.41C1250.21,1343.38 1264.33,1350.79 1279.07,1356.74Z" style="fill:rgb(115,68,50);fill-rule:nonzero;"/>
            <path d="M1380.3,1382.42C1372.07,1379.92 1363.81,1377.71 1355.45,1375.87C1347.1,1374 1338.63,1372.5 1330.05,1370.91C1325.76,1370.09 1321.45,1369.26 1317.14,1368.33C1312.83,1367.37 1308.52,1366.35 1304.25,1365.19C1295.69,1362.87 1287.28,1360.01 1279.07,1356.74C1264.33,1350.79 1250.21,1343.38 1237.22,1334.41C1236.67,1337.01 1236.91,1339.9 1237.87,1342.99C1247.86,1349 1258.38,1354.18 1269.24,1358.57C1277.45,1361.83 1285.85,1364.69 1294.41,1367.01C1298.69,1368.18 1303,1369.2 1307.3,1370.15C1311.62,1371.08 1315.93,1371.91 1320.21,1372.74C1328.8,1374.32 1337.26,1375.83 1345.62,1377.7C1353.98,1379.54 1362.24,1381.75 1370.47,1384.24C1385.36,1388.78 1399.97,1394.34 1414.53,1400.55L1414.46,1400.73L1414.44,1400.81C1412.34,1406.46 1406.1,1410.72 1396.65,1413.21C1411.61,1411.46 1421.52,1406.41 1424.27,1398.99L1424.29,1398.91L1424.36,1398.73C1409.8,1392.52 1395.19,1386.96 1380.3,1382.42Z" style="fill:rgb(191,132,111);fill-rule:nonzero;"/>
            <path d="M1271.98,1317.83C1292.55,1316.82 1317.97,1321.25 1343.56,1330.3C1357.92,1335.38 1371.31,1341.55 1383.02,1348.42C1392.19,1353.79 1400.32,1359.59 1407.06,1365.62C1420.42,1377.55 1426.76,1389.1 1424.7,1397.59C1411.81,1388.44 1397.67,1381 1382.92,1375.03C1374.71,1371.74 1366.26,1368.94 1357.68,1366.68C1353.4,1365.53 1349.08,1364.57 1344.78,1363.62C1340.47,1362.73 1336.16,1361.91 1331.89,1361.09C1327.61,1360.3 1323.36,1359.52 1319.15,1358.66C1314.92,1357.86 1310.73,1356.94 1306.55,1355.99C1302.37,1355.04 1298.23,1353.98 1294.08,1352.88C1292,1352.37 1289.95,1351.72 1287.89,1351.14C1285.81,1350.57 1283.75,1349.97 1281.7,1349.33C1266.8,1344.79 1252.17,1339.25 1237.53,1333.25L1237.58,1333.07L1237.65,1332.87C1237.71,1332.7 1237.77,1332.54 1237.83,1332.37C1241.11,1324.03 1253.51,1318.74 1271.98,1317.83Z" style="fill:rgb(115,68,50);fill-rule:nonzero;"/>
            <path d="M1407.06,1365.62C1400.32,1359.59 1392.19,1353.79 1383.02,1348.42C1371.31,1341.55 1357.92,1335.38 1343.56,1330.3C1317.97,1321.25 1292.55,1316.82 1271.98,1317.83C1265.77,1318.14 1260.26,1318.95 1255.54,1320.2C1257.64,1319.95 1259.85,1319.77 1262.15,1319.65C1282.72,1318.64 1308.14,1323.07 1333.73,1332.13C1348.08,1337.2 1361.48,1343.38 1373.19,1350.24C1382.35,1355.62 1390.49,1361.42 1397.23,1367.44C1406.49,1375.72 1412.37,1383.8 1414.42,1390.81C1417.92,1392.96 1421.35,1395.21 1424.7,1397.59C1426.76,1389.1 1420.42,1377.55 1407.06,1365.62Z" style="fill:rgb(191,132,111);fill-rule:nonzero;"/>
            <path d="M1273.94,1391.79C1286.21,1398.98 1300.19,1405.43 1315.12,1410.71C1341.9,1420.19 1368.68,1424.82 1390.52,1423.74C1397.95,1423.38 1404.57,1422.35 1410.28,1420.71C1387.98,1442.25 1346.96,1448.8 1306.68,1434.55C1281.5,1425.64 1260.44,1410.03 1247.38,1390.61C1240.35,1380.15 1236.14,1369.29 1234.82,1358.63C1238.24,1363.51 1242.74,1368.47 1248.29,1373.43C1255.51,1379.88 1264.19,1386.07 1273.94,1391.79Z" style="fill:rgb(115,68,50);fill-rule:nonzero;"/>
            <path d="M1256.98,1380.54C1249.37,1375.75 1242.51,1370.67 1236.63,1365.42C1236.38,1365.19 1236.14,1364.96 1235.89,1364.74C1235.47,1362.89 1235.14,1361.05 1234.9,1359.21C1234.9,1359.2 1234.9,1359.2 1234.89,1359.19C1234.89,1359.16 1234.89,1359.14 1234.88,1359.11L1234.88,1359.06C1234.87,1359.03 1234.87,1359 1234.87,1358.97C1234.86,1358.95 1234.86,1358.92 1234.86,1358.9C1234.85,1358.89 1234.85,1358.87 1234.85,1358.86C1234.85,1358.83 1234.84,1358.81 1234.84,1358.78L1234.84,1358.75C1234.83,1358.71 1234.83,1358.67 1234.82,1358.63C1238.24,1363.51 1242.74,1368.47 1248.29,1373.43C1248.33,1373.46 1248.37,1373.5 1248.42,1373.54C1251.08,1375.91 1253.94,1378.25 1256.98,1380.54Z" style="fill:rgb(57,34,25);fill-rule:nonzero;"/>
            <path d="M1349.67,1442.12L1349.64,1442.12C1335.99,1442.12 1321.55,1439.74 1307.19,1434.73C1307.02,1434.67 1306.85,1434.61 1306.68,1434.55C1306.63,1434.53 1306.58,1434.51 1306.53,1434.49L1306.52,1434.49C1301.13,1432.58 1295.93,1430.35 1290.97,1427.85C1291.12,1427.63 1291.27,1427.41 1291.42,1427.19C1291.78,1426.67 1292.14,1426.14 1292.48,1425.61C1293.33,1425.93 1294.17,1426.24 1295.03,1426.54C1309.55,1431.68 1324.17,1434.11 1337.97,1434.11C1354.68,1434.11 1370.21,1430.54 1382.91,1423.89C1383.34,1423.9 1383.76,1423.9 1384.18,1423.9C1386.34,1423.9 1388.45,1423.85 1390.52,1423.74C1397.95,1423.38 1404.57,1422.35 1410.28,1420.71C1410.18,1420.81 1410.08,1420.91 1409.97,1421.01C1409.92,1421.07 1409.86,1421.12 1409.8,1421.18C1409.78,1421.2 1409.76,1421.21 1409.74,1421.23C1409.72,1421.25 1409.7,1421.27 1409.68,1421.29C1395.42,1434.69 1373.79,1442.12 1349.67,1442.12ZM1275.13,1418.4C1273.5,1417.26 1271.9,1416.08 1270.34,1414.87C1272.12,1415.95 1273.94,1416.99 1275.78,1417.99C1275.57,1418.13 1275.35,1418.27 1275.13,1418.4Z" style="fill:rgb(57,34,25);fill-rule:nonzero;"/>
            <path d="M1237.83,1332.37C1241.11,1324.03 1253.51,1318.74 1271.98,1317.83C1292.55,1316.82 1317.97,1321.25 1343.56,1330.3C1357.92,1335.38 1371.31,1341.55 1383.02,1348.42C1392.19,1353.79 1400.32,1359.59 1407.06,1365.62C1420.42,1377.55 1426.76,1389.1 1424.7,1397.59C1411.81,1388.44 1397.67,1380.99 1382.92,1375.03C1374.71,1371.74 1366.26,1368.94 1357.68,1366.68C1353.4,1365.53 1349.08,1364.57 1344.78,1363.62C1340.47,1362.73 1336.16,1361.91 1331.89,1361.09C1327.61,1360.3 1323.36,1359.52 1319.15,1358.66C1314.91,1357.86 1310.73,1356.94 1306.55,1355.99C1302.37,1355.04 1298.23,1353.98 1294.08,1352.88C1292,1352.37 1289.95,1351.72 1287.89,1351.14C1285.81,1350.57 1283.75,1349.97 1281.7,1349.33C1266.8,1344.79 1252.17,1339.25 1237.53,1333.25L1237.58,1333.07L1237.65,1332.87C1237.71,1332.7 1237.77,1332.54 1237.83,1332.37ZM1237.22,1334.41C1250.21,1343.38 1264.33,1350.79 1279.07,1356.74C1287.28,1360.01 1295.69,1362.87 1304.24,1365.19C1308.52,1366.35 1312.83,1367.37 1317.14,1368.33C1321.45,1369.26 1325.76,1370.09 1330.05,1370.91C1338.63,1372.5 1347.1,1374 1355.45,1375.87C1363.81,1377.71 1372.07,1379.92 1380.3,1382.42C1395.19,1386.96 1409.8,1392.52 1424.36,1398.73L1424.29,1398.91L1424.27,1398.99C1421.13,1407.46 1408.67,1412.84 1390.03,1413.76C1369.46,1414.77 1344.04,1410.34 1318.45,1401.29C1292.86,1392.23 1270.31,1379.69 1254.95,1365.97C1241.81,1354.22 1235.45,1342.85 1237.22,1334.41ZM1234.82,1358.63C1238.24,1363.51 1242.74,1368.47 1248.29,1373.43C1255.51,1379.88 1264.19,1386.07 1273.94,1391.79C1286.21,1398.98 1300.19,1405.43 1315.12,1410.71C1341.9,1420.19 1368.68,1424.82 1390.52,1423.74C1397.95,1423.38 1404.57,1422.35 1410.28,1420.71C1387.98,1442.25 1346.96,1448.8 1306.68,1434.55C1281.5,1425.64 1260.44,1410.03 1247.38,1390.61C1240.35,1380.15 1236.14,1369.29 1234.82,1358.63ZM1232.89,1321.65C1226.09,1336.88 1224.44,1353.95 1227.33,1371.61C1229.77,1379.91 1233.7,1388.17 1239.09,1396.19C1248.74,1410.55 1262.32,1422.97 1278.54,1432.48C1286.26,1437 1294.58,1440.87 1303.35,1443.97C1360.01,1464.02 1418.41,1445.54 1433.54,1402.78C1433.59,1402.64 1433.64,1402.5 1433.68,1402.36L1433.77,1402.15C1433.83,1401.96 1433.89,1401.76 1433.95,1401.57C1433.98,1401.48 1434.02,1401.38 1434.05,1401.29L1434.1,1401.13C1434.13,1401 1434.17,1400.88 1434.2,1400.76L1434.26,1400.56L1434.27,1400.52C1437.66,1388.05 1430.44,1373.09 1413.72,1358.16C1397.42,1343.59 1373.69,1330.35 1346.9,1320.87C1320.11,1311.4 1293.33,1306.77 1271.49,1307.84C1253.35,1308.73 1240.05,1313.56 1232.89,1321.65Z" style="fill-rule:nonzero;"/>
            <path d="M816.137,1469.01C793.957,1486.89 769.826,1499.74 748.189,1505.22C740.718,1507.11 733.81,1508.03 727.552,1508.04C758.023,1524.34 801.025,1519.08 834.647,1491.99C855.371,1475.29 869.436,1452.93 874.249,1429.02C876.962,1415.54 876.525,1402.51 873.132,1390.67C871.793,1396.8 869.417,1403.39 865.964,1410.32C856.013,1430.3 838.318,1451.14 816.137,1469.01Z" style="fill:rgb(115,68,50);fill-rule:nonzero;"/>
            <path d="M834.491,1492.11C834.542,1492.07 834.595,1492.03 834.647,1491.99C839.463,1488.1 843.919,1483.92 847.984,1479.48C843.919,1483.92 839.463,1488.1 834.647,1491.99C834.594,1492.03 834.543,1492.07 834.491,1492.11Z" style="fill:rgb(125,119,112);fill-rule:nonzero;"/>
            <path d="M875.575,1420.29C875.872,1417.38 876.019,1414.5 876.017,1411.65C876.019,1414.5 875.872,1417.38 875.575,1420.29ZM865.996,1410.25C866.07,1410.1 866.144,1409.95 866.218,1409.8L866.219,1409.8C866.145,1409.95 866.071,1410.1 865.996,1410.25Z" style="fill-rule:nonzero;"/>
            <path d="M866.219,1409.8L866.218,1409.8C868.845,1404.46 870.83,1399.33 872.19,1394.45C870.83,1399.33 868.846,1404.46 866.219,1409.8ZM872.195,1394.43C872.207,1394.39 872.219,1394.35 872.231,1394.3C872.219,1394.35 872.207,1394.39 872.195,1394.43ZM872.243,1394.26C872.253,1394.23 872.262,1394.19 872.271,1394.16C872.262,1394.19 872.253,1394.23 872.243,1394.26ZM872.292,1394.08C872.298,1394.06 872.305,1394.04 872.311,1394.01C872.305,1394.04 872.298,1394.06 872.292,1394.08ZM872.345,1393.89C872.346,1393.88 872.348,1393.88 872.35,1393.87C872.348,1393.88 872.346,1393.88 872.345,1393.89Z" style="fill:rgb(15,28,25);fill-rule:nonzero;"/>
            <path d="M766.202,1517.25C764.529,1517.25 762.862,1517.21 761.209,1517.12C782.671,1515.99 805.223,1507.64 824.646,1491.99C845.371,1475.29 859.436,1452.93 864.25,1429.02C865.534,1422.64 866.104,1416.36 865.996,1410.25C866.071,1410.1 866.145,1409.95 866.219,1409.8C868.846,1404.46 870.83,1399.33 872.19,1394.45C872.192,1394.44 872.194,1394.44 872.195,1394.43C872.207,1394.39 872.219,1394.35 872.231,1394.3C872.235,1394.29 872.239,1394.27 872.243,1394.26C872.253,1394.23 872.262,1394.19 872.271,1394.16C872.278,1394.13 872.285,1394.11 872.292,1394.08C872.298,1394.06 872.305,1394.04 872.311,1394.01C872.322,1393.97 872.333,1393.93 872.345,1393.89C872.346,1393.88 872.348,1393.88 872.35,1393.87C872.641,1392.79 872.902,1391.72 873.132,1390.67C875.041,1397.33 876.014,1404.37 876.017,1411.65C876.019,1414.5 875.872,1417.38 875.575,1420.29C875.281,1423.18 874.84,1426.09 874.249,1429.02C870.555,1447.37 861.408,1464.81 847.984,1479.48C843.919,1483.92 839.463,1488.1 834.647,1491.99C834.595,1492.03 834.542,1492.07 834.491,1492.11C813.582,1508.9 789.071,1517.25 766.202,1517.25Z" style="fill:rgb(57,34,25);fill-rule:nonzero;"/>
            <path d="M822.718,1394.26C816.279,1399.96 810.101,1405.86 804.223,1412.08C798.327,1418.28 792.719,1424.8 786.974,1431.39C784.082,1434.66 781.163,1437.96 778.15,1441.2C775.123,1444.42 772.024,1447.61 768.814,1450.68C762.397,1456.84 755.554,1462.55 748.446,1467.85C735.61,1477.3 721.766,1485.31 707.174,1491.4C714.245,1498.46 728.132,1499.98 745.736,1495.52C766.006,1490.39 788.781,1478.21 809.863,1461.23C830.946,1444.24 847.69,1424.58 857.014,1405.86C865.563,1388.69 866.723,1374.16 860.209,1365.94L860.018,1365.7C846.901,1374.58 834.392,1383.98 822.718,1394.26Z" style="fill:rgb(115,68,50);fill-rule:nonzero;"/>
            <path d="M748.446,1473.5C755.554,1468.21 762.397,1462.5 768.814,1456.34C772.024,1453.27 775.123,1450.08 778.15,1446.86C781.163,1443.62 784.082,1440.32 786.974,1437.05C792.719,1430.46 798.327,1423.94 804.223,1417.74C810.101,1411.52 816.279,1405.62 822.718,1399.92C834.392,1389.64 846.901,1380.24 860.018,1371.36L860.209,1371.6C862.536,1374.53 863.865,1378.28 864.247,1382.66C864.816,1375.8 863.485,1370.07 860.209,1365.94L860.018,1365.7C846.901,1374.58 834.392,1383.98 822.718,1394.26C816.279,1399.96 810.101,1405.86 804.223,1412.08C798.327,1418.28 792.719,1424.8 786.974,1431.39C784.082,1434.66 781.163,1437.96 778.15,1441.2C775.123,1444.42 772.024,1447.61 768.814,1450.68C762.397,1456.84 755.554,1462.55 748.446,1467.85C735.61,1477.3 721.766,1485.31 707.174,1491.4C708.562,1492.78 710.22,1493.95 712.11,1494.9C724.893,1489.12 737.067,1481.88 748.446,1473.5Z" style="fill:rgb(191,132,111);fill-rule:nonzero;"/>
            <path d="M756.218,1394.65C724.406,1420.28 703.471,1451.72 701.705,1473.23C701.158,1479.9 702.458,1485.6 705.837,1489.89L706.042,1490.15C706.145,1490.28 706.264,1490.39 706.372,1490.51C719.348,1481.43 731.845,1472.01 743.515,1461.72C745.14,1460.31 746.729,1458.87 748.295,1457.4C749.867,1455.93 751.491,1454.53 753.01,1453.02C756.103,1450.05 759.157,1447.06 762.119,1443.96C765.079,1440.87 768.014,1437.75 770.865,1434.53C773.757,1431.34 776.596,1428.08 779.459,1424.79C782.344,1421.54 785.251,1418.24 788.224,1414.98C791.245,1411.76 794.289,1408.53 797.488,1405.43C803.864,1399.23 810.674,1393.44 817.802,1388.16C830.647,1378.71 844.529,1370.7 859.211,1364.81C852.243,1357.48 838.215,1355.83 820.346,1360.35C800.075,1365.48 777.301,1377.66 756.218,1394.65Z" style="fill:rgb(115,68,50);fill-rule:nonzero;"/>
            <path d="M756.218,1404.65C777.301,1387.66 800.075,1375.48 820.346,1370.35C831.88,1367.44 841.797,1367.1 849.265,1369.19C852.539,1367.63 855.851,1366.16 859.211,1364.81C852.243,1357.48 838.215,1355.83 820.346,1360.35C800.075,1365.48 777.301,1377.66 756.218,1394.65C724.406,1420.28 703.471,1451.72 701.705,1473.23C701.483,1475.94 701.582,1478.47 701.983,1480.83C705.026,1459.43 725.571,1429.34 756.218,1404.65Z" style="fill:rgb(191,132,111);fill-rule:nonzero;"/>
            <path d="M859.211,1364.81C844.529,1370.7 830.647,1378.71 817.802,1388.16C810.674,1393.44 803.864,1399.23 797.488,1405.43C794.289,1408.53 791.245,1411.76 788.224,1414.98C785.251,1418.24 782.344,1421.54 779.459,1424.79C776.596,1428.08 773.757,1431.34 770.865,1434.53C768.014,1437.75 765.079,1440.87 762.119,1443.96C759.157,1447.06 756.103,1450.05 753.01,1453.02C751.491,1454.53 749.867,1455.93 748.295,1457.4C746.729,1458.87 745.14,1460.31 743.515,1461.72C731.845,1472.01 719.348,1481.43 706.372,1490.51C706.264,1490.39 706.145,1490.28 706.042,1490.15L705.837,1489.89C702.458,1485.6 701.158,1479.9 701.705,1473.23C703.471,1451.72 724.406,1420.28 756.218,1394.65C777.301,1377.66 800.075,1365.48 820.346,1360.35C838.215,1355.83 852.243,1357.48 859.211,1364.81ZM860.209,1365.94C866.723,1374.16 865.563,1388.69 857.014,1405.86C847.69,1424.58 830.946,1444.24 809.863,1461.23C788.781,1478.21 766.006,1490.39 745.736,1495.52C728.132,1499.98 714.245,1498.46 707.174,1491.4C721.766,1485.31 735.61,1477.3 748.446,1467.85C755.554,1462.55 762.397,1456.84 768.814,1450.68C772.024,1447.61 775.123,1444.42 778.15,1441.2C781.163,1437.96 784.082,1434.66 786.974,1431.39C792.719,1424.8 798.327,1418.28 804.223,1412.08C810.101,1405.86 816.279,1399.96 822.718,1394.26C834.392,1383.98 846.901,1374.58 860.018,1365.7L860.209,1365.94ZM874.25,1429.02C869.436,1452.93 855.371,1475.29 834.646,1491.99C801.025,1519.08 758.022,1524.34 727.552,1508.04C733.81,1508.03 740.718,1507.11 748.189,1505.22C769.826,1499.74 793.958,1486.89 816.137,1469.01C838.318,1451.14 856.013,1430.3 865.964,1410.32C869.417,1403.39 871.793,1396.8 873.132,1390.67C876.525,1402.51 876.962,1415.54 874.25,1429.02ZM749.944,1386.86C703.314,1424.44 680.547,1471.35 697.093,1494.89L697.117,1494.94L697.248,1495.12L697.433,1495.37L697.558,1495.54L697.749,1495.78C697.887,1495.96 698.021,1496.15 698.165,1496.33L698.278,1496.46L698.298,1496.48C698.405,1496.62 698.517,1496.76 698.635,1496.91C730.291,1536.2 794.12,1537.48 840.921,1499.77C863.46,1481.61 878.778,1457.19 884.052,1431C884.844,1427.07 885.395,1423.17 885.711,1419.32C887.531,1397.15 881.545,1376.46 868.39,1360.14C868.291,1360.01 868.189,1359.89 868.086,1359.77L867.917,1359.55L867.739,1359.35C867.588,1359.17 867.439,1358.98 867.284,1358.8C867.118,1358.59 866.958,1358.41 866.786,1358.23L866.626,1358.1C857.031,1347.77 839.846,1345.11 817.893,1350.66C796.255,1356.13 772.124,1368.99 749.944,1386.86Z" style="fill-rule:nonzero;"/>
            <path d="M1222.28,1441.21C1183.59,1452.15 1147.69,1451.87 1125.36,1442.3C1133.03,1451.91 1143.38,1459.81 1155.9,1465.4L1156.04,1465.46C1178.32,1475.37 1204.7,1476.84 1230.31,1469.6C1255.92,1462.36 1277.62,1447.3 1291.42,1427.19C1299.21,1415.84 1303.92,1403.66 1305.43,1391.41C1291.41,1411.25 1260.97,1430.27 1222.28,1441.21Z" style="fill:rgb(115,68,50);fill-rule:nonzero;"/>
            <path d="M1161.67,1449.37C1148.33,1448.93 1136.52,1446.76 1126.99,1442.97C1136.52,1446.75 1148.34,1448.93 1161.68,1449.37L1161.67,1449.37ZM1126.99,1442.97C1126.95,1442.95 1126.91,1442.94 1126.87,1442.92C1126.91,1442.94 1126.95,1442.95 1126.99,1442.97ZM1126.86,1442.92C1126.83,1442.91 1126.79,1442.89 1126.75,1442.88C1126.79,1442.89 1126.83,1442.91 1126.86,1442.92ZM1126.75,1442.87C1126.6,1442.81 1126.45,1442.75 1126.3,1442.69C1126.45,1442.75 1126.6,1442.81 1126.75,1442.87ZM1126.28,1442.68C1126.25,1442.67 1126.22,1442.66 1126.19,1442.65C1126.22,1442.66 1126.25,1442.67 1126.28,1442.68ZM1126.16,1442.63C1126.13,1442.62 1126.11,1442.61 1126.08,1442.6C1126.1,1442.61 1126.13,1442.62 1126.16,1442.63ZM1126.03,1442.58C1126.01,1442.57 1125.98,1442.56 1125.96,1442.55C1125.99,1442.56 1126.01,1442.57 1126.03,1442.58ZM1125.91,1442.53C1125.89,1442.52 1125.86,1442.51 1125.84,1442.5C1125.86,1442.51 1125.88,1442.52 1125.91,1442.53ZM1125.78,1442.48C1125.76,1442.47 1125.74,1442.46 1125.72,1442.45C1125.74,1442.46 1125.76,1442.47 1125.78,1442.48ZM1125.65,1442.42C1125.64,1442.42 1125.62,1442.41 1125.6,1442.4C1125.62,1442.41 1125.64,1442.42 1125.65,1442.42ZM1125.52,1442.37C1125.51,1442.36 1125.49,1442.35 1125.48,1442.35C1125.49,1442.35 1125.51,1442.36 1125.52,1442.37Z" style="fill:rgb(99,69,44);fill-rule:nonzero;"/>
            <path d="M1156.69,1449.44C1146.64,1449.44 1137.36,1448.5 1129.14,1446.66C1127.82,1445.24 1126.55,1443.79 1125.36,1442.3C1125.4,1442.31 1125.44,1442.33 1125.48,1442.35C1125.49,1442.35 1125.51,1442.36 1125.52,1442.37C1125.55,1442.38 1125.57,1442.39 1125.6,1442.4C1125.62,1442.41 1125.64,1442.42 1125.65,1442.42C1125.68,1442.43 1125.7,1442.44 1125.72,1442.45C1125.74,1442.46 1125.76,1442.47 1125.78,1442.48C1125.8,1442.49 1125.82,1442.49 1125.84,1442.5C1125.86,1442.51 1125.89,1442.52 1125.91,1442.53C1125.92,1442.54 1125.94,1442.55 1125.96,1442.55C1125.98,1442.56 1126.01,1442.57 1126.03,1442.58C1126.05,1442.59 1126.06,1442.59 1126.08,1442.6C1126.11,1442.61 1126.13,1442.62 1126.16,1442.63C1126.17,1442.64 1126.18,1442.64 1126.19,1442.65C1126.22,1442.66 1126.25,1442.67 1126.28,1442.68C1126.29,1442.69 1126.29,1442.69 1126.3,1442.69C1126.45,1442.75 1126.6,1442.81 1126.75,1442.87L1126.75,1442.88C1126.79,1442.89 1126.83,1442.91 1126.86,1442.92L1126.87,1442.92C1126.91,1442.94 1126.95,1442.95 1126.99,1442.97C1136.52,1446.76 1148.33,1448.93 1161.67,1449.37C1159.99,1449.42 1158.33,1449.44 1156.69,1449.44Z" style="fill:rgb(57,34,25);fill-rule:nonzero;"/>
            <path d="M1229.81,1469.74C1229.97,1469.69 1230.14,1469.64 1230.31,1469.6C1252.08,1463.44 1271.03,1451.64 1284.7,1435.88C1271.03,1451.64 1252.08,1463.44 1230.31,1469.6C1230.14,1469.64 1229.97,1469.69 1229.81,1469.74Z" style="fill:rgb(99,69,44);fill-rule:nonzero;"/>
            <path d="M1290.96,1427.86C1290.96,1427.85 1290.96,1427.85 1290.97,1427.85C1290.96,1427.85 1290.96,1427.85 1290.96,1427.86ZM1292.48,1425.61C1296.7,1419.2 1299.94,1412.53 1302.18,1405.75C1299.94,1412.53 1296.7,1419.2 1292.48,1425.61Z" style="fill:rgb(57,34,25);fill-rule:nonzero;"/>
            <path d="M1304.72,1395.98C1305.01,1394.46 1305.24,1392.93 1305.43,1391.41C1305.24,1392.93 1305.01,1394.46 1304.72,1395.98Z" style="fill:rgb(57,34,25);fill-rule:nonzero;"/>
            <path d="M1284.7,1435.88C1286.93,1433.31 1289.02,1430.63 1290.96,1427.86C1289.02,1430.63 1286.93,1433.31 1284.7,1435.88ZM1302.18,1405.75C1303.26,1402.51 1304.1,1399.25 1304.72,1395.98C1304.1,1399.25 1303.26,1402.51 1302.18,1405.75Z" style="fill-rule:nonzero;"/>
            <path d="M1292.13,1405.88L1292.13,1405.87C1293.28,1404.87 1294.38,1403.86 1295.45,1402.84C1294.38,1403.86 1293.28,1404.87 1292.13,1405.88Z" style="fill:rgb(57,34,25);fill-rule:nonzero;"/>
            <path d="M1302.64,1395.09C1303.07,1394.55 1303.5,1394.02 1303.91,1393.48C1303.5,1394.02 1303.07,1394.55 1302.64,1395.09Z" style="fill:rgb(57,34,25);fill-rule:nonzero;"/>
            <path d="M1295.45,1402.84C1298.11,1400.29 1300.51,1397.7 1302.64,1395.09C1300.52,1397.7 1298.11,1400.29 1295.45,1402.84Z" style="fill-rule:nonzero;"/>
            <path d="M1303.91,1393.47C1303.94,1393.44 1303.97,1393.4 1303.99,1393.37C1303.97,1393.4 1303.94,1393.44 1303.91,1393.47ZM1304.02,1393.34C1304.04,1393.31 1304.06,1393.28 1304.08,1393.26C1304.06,1393.28 1304.04,1393.31 1304.02,1393.34ZM1304.13,1393.19C1304.14,1393.17 1304.15,1393.16 1304.16,1393.15C1304.15,1393.16 1304.14,1393.17 1304.13,1393.19ZM1304.23,1393.05C1304.24,1393.04 1304.24,1393.04 1304.25,1393.03C1304.24,1393.04 1304.24,1393.04 1304.23,1393.05Z" style="fill:rgb(57,34,25);fill-rule:nonzero;"/>
            <path d="M1198.16,1474.11C1196.46,1474.11 1194.77,1474.08 1193.08,1474C1202.11,1473.6 1211.26,1472.16 1220.31,1469.6C1245.92,1462.36 1267.62,1447.3 1281.42,1427.19C1286.13,1420.34 1289.7,1413.17 1292.13,1405.88C1293.28,1404.87 1294.38,1403.86 1295.45,1402.84C1298.11,1400.29 1300.52,1397.7 1302.64,1395.09C1303.07,1394.55 1303.5,1394.02 1303.91,1393.48L1303.91,1393.47C1303.94,1393.44 1303.97,1393.4 1303.99,1393.37C1304,1393.36 1304.01,1393.35 1304.02,1393.34C1304.04,1393.31 1304.06,1393.28 1304.08,1393.26C1304.1,1393.23 1304.11,1393.21 1304.13,1393.19C1304.14,1393.17 1304.15,1393.16 1304.16,1393.15C1304.19,1393.11 1304.21,1393.08 1304.23,1393.05C1304.24,1393.04 1304.24,1393.04 1304.25,1393.03C1304.65,1392.49 1305.05,1391.95 1305.43,1391.41C1305.24,1392.93 1305.01,1394.46 1304.72,1395.98C1304.1,1399.25 1303.26,1402.51 1302.18,1405.75C1299.94,1412.53 1296.7,1419.2 1292.48,1425.61C1292.14,1426.14 1291.78,1426.67 1291.42,1427.19C1291.27,1427.41 1291.12,1427.63 1290.97,1427.85C1290.96,1427.85 1290.96,1427.85 1290.96,1427.86C1289.02,1430.63 1286.93,1433.31 1284.7,1435.88C1271.03,1451.64 1252.08,1463.44 1230.31,1469.6C1230.14,1469.64 1229.97,1469.69 1229.81,1469.74C1219.27,1472.67 1208.61,1474.11 1198.16,1474.11Z" style="fill:rgb(57,34,25);fill-rule:nonzero;"/>
            <path d="M1155.38,1395.78C1163.81,1393.02 1172.47,1390.82 1181.22,1389.21C1185.59,1388.39 1189.99,1387.78 1194.37,1387.18C1198.75,1386.64 1203.12,1386.18 1207.44,1385.71C1211.78,1385.27 1216.08,1384.85 1220.35,1384.33C1224.63,1383.87 1228.88,1383.28 1233.11,1382.66C1237.35,1382.03 1241.56,1381.27 1245.77,1380.47C1247.88,1380.1 1249.96,1379.59 1252.07,1379.16C1254.17,1378.73 1256.27,1378.27 1258.36,1377.76C1273.5,1374.2 1288.42,1369.46 1303.33,1364.13C1303.3,1363.97 1303.28,1363.81 1303.23,1363.66C1303.19,1363.48 1303.13,1363.31 1303.08,1363.15C1301.12,1356.74 1295.6,1351.65 1287.48,1348.03C1267.74,1339.22 1232.69,1339.03 1196.31,1349.31C1170.25,1356.68 1147.14,1368.2 1131.23,1381.77C1117.2,1393.72 1110.42,1406.12 1112.37,1416.04C1125.67,1407.48 1140.24,1400.79 1155.38,1395.78Z" style="fill:rgb(115,68,50);fill-rule:nonzero;"/>
            <path d="M1141.23,1381.77C1157.14,1368.2 1180.25,1356.68 1206.31,1349.31C1223.09,1344.57 1239.59,1342.06 1254.44,1341.59C1237.2,1341.01 1216.97,1343.47 1196.31,1349.31C1170.25,1356.68 1147.14,1368.2 1131.23,1381.77C1117.2,1393.72 1110.43,1406.12 1112.37,1416.04C1115.58,1413.98 1118.85,1412.03 1122.19,1410.19C1123.24,1401.46 1129.84,1391.47 1141.23,1381.77Z" style="fill:rgb(191,132,111);fill-rule:nonzero;"/>
            <path d="M1303.59,1365.29C1290.18,1373.67 1275.64,1380.33 1260.5,1385.33C1252.07,1388.06 1243.46,1390.34 1234.72,1392.01C1230.35,1392.84 1225.96,1393.53 1221.58,1394.13C1217.19,1394.71 1212.81,1395.19 1208.47,1395.65C1199.77,1396.52 1191.21,1397.33 1182.74,1398.55C1174.27,1399.75 1165.88,1401.37 1157.51,1403.32C1142.37,1406.89 1127.47,1411.66 1112.63,1417.22C1112.66,1417.32 1112.68,1417.41 1112.71,1417.51C1119.18,1439.7 1168.03,1446.15 1219.56,1431.59C1269.85,1417.37 1307.47,1387.45 1303.59,1365.29Z" style="fill:rgb(115,68,50);fill-rule:nonzero;"/>
            <path d="M1122.71,1417.51C1122.68,1417.41 1122.66,1417.32 1122.63,1417.22C1137.47,1411.66 1152.37,1406.89 1167.51,1403.32C1175.88,1401.37 1184.27,1399.75 1192.74,1398.55C1201.21,1397.33 1209.77,1396.52 1218.47,1395.65C1222.81,1395.19 1227.19,1394.71 1231.58,1394.13C1235.96,1393.53 1240.35,1392.84 1244.72,1392.01C1253.46,1390.34 1262.07,1388.06 1270.5,1385.33C1281.99,1381.53 1293.13,1376.78 1303.7,1371.05C1303.94,1369.08 1303.92,1367.16 1303.59,1365.29C1290.18,1373.67 1275.64,1380.33 1260.5,1385.33C1252.07,1388.06 1243.46,1390.34 1234.72,1392.01C1230.35,1392.84 1225.96,1393.53 1221.58,1394.13C1217.19,1394.71 1212.81,1395.19 1208.47,1395.65C1199.77,1396.52 1191.21,1397.33 1182.74,1398.55C1174.27,1399.75 1165.88,1401.37 1157.51,1403.32C1142.37,1406.89 1127.47,1411.66 1112.63,1417.22C1112.66,1417.32 1112.68,1417.41 1112.71,1417.51C1117.08,1432.48 1140.73,1440.29 1171.47,1439.31C1145.69,1438.46 1126.59,1430.81 1122.71,1417.51Z" style="fill:rgb(191,132,111);fill-rule:nonzero;"/>
            <path d="M1291.42,1427.19C1277.62,1447.3 1255.92,1462.36 1230.31,1469.6C1204.7,1476.84 1178.32,1475.37 1156.04,1465.46L1155.9,1465.4C1143.38,1459.81 1133.03,1451.91 1125.36,1442.3C1147.69,1451.87 1183.59,1452.15 1222.28,1441.21C1260.97,1430.27 1291.41,1411.25 1305.43,1391.41C1303.92,1403.66 1299.21,1415.84 1291.42,1427.19ZM1112.71,1417.51C1112.68,1417.41 1112.66,1417.32 1112.63,1417.22C1127.47,1411.66 1142.37,1406.89 1157.51,1403.32C1165.88,1401.37 1174.27,1399.75 1182.74,1398.55C1191.21,1397.33 1199.77,1396.52 1208.47,1395.65C1212.81,1395.19 1217.19,1394.71 1221.58,1394.13C1225.96,1393.53 1230.35,1392.84 1234.72,1392.01C1243.46,1390.34 1252.07,1388.06 1260.5,1385.33C1275.64,1380.33 1290.18,1373.67 1303.59,1365.29C1307.47,1387.45 1269.85,1417.37 1219.56,1431.59C1168.03,1446.15 1119.18,1439.7 1112.71,1417.51ZM1131.23,1381.77C1147.14,1368.2 1170.25,1356.68 1196.31,1349.31C1232.69,1339.03 1267.74,1339.22 1287.48,1348.03C1295.6,1351.65 1301.12,1356.74 1303.08,1363.15C1303.13,1363.31 1303.19,1363.48 1303.23,1363.66C1303.28,1363.81 1303.3,1363.97 1303.33,1364.13C1288.42,1369.46 1273.5,1374.2 1258.36,1377.76C1256.27,1378.27 1254.17,1378.73 1252.07,1379.16C1249.96,1379.59 1247.88,1380.1 1245.77,1380.47C1241.56,1381.27 1237.35,1382.03 1233.11,1382.66C1228.88,1383.28 1224.63,1383.87 1220.35,1384.33C1216.08,1384.85 1211.78,1385.27 1207.44,1385.71C1203.12,1386.18 1198.75,1386.64 1194.37,1387.18C1189.99,1387.78 1185.59,1388.39 1181.22,1389.21C1172.47,1390.82 1163.81,1393.02 1155.38,1395.78C1140.24,1400.79 1125.67,1407.48 1112.37,1416.04C1110.42,1406.12 1117.2,1393.72 1131.23,1381.77ZM1312.89,1361.06L1312.82,1360.8L1312.77,1360.65C1312.7,1360.38 1312.62,1360.13 1312.55,1359.9C1312.47,1359.63 1312.4,1359.4 1312.31,1359.16L1312.2,1358.96C1302.44,1331.95 1251.11,1323.43 1193.59,1339.69C1166.18,1347.44 1141.73,1359.68 1124.74,1374.16C1107.44,1388.9 1099.66,1404.52 1102.62,1418.36L1102.62,1418.4L1102.66,1418.57C1102.69,1418.7 1102.72,1418.82 1102.75,1418.94L1102.79,1419.13C1102.82,1419.24 1102.85,1419.35 1102.88,1419.45C1102.94,1419.67 1102.98,1419.88 1103.04,1420.1L1103.11,1420.3C1103.15,1420.48 1103.2,1420.65 1103.25,1420.82C1109.93,1444.46 1127.18,1463.53 1151.83,1474.53L1151.98,1474.6C1176.39,1485.45 1205.17,1487.09 1233.03,1479.22C1260.88,1471.35 1284.55,1454.88 1299.67,1432.85C1314.98,1410.54 1319.72,1385.21 1313.02,1361.48C1312.98,1361.34 1312.94,1361.2 1312.89,1361.06Z" style="fill-rule:nonzero;"/>
        </g>
    </g>
</svg>
