<?xml version="1.0" encoding="UTF-8" standalone="no"?>
<!DOCTYPE svg PUBLIC "-//W3C//DTD SVG 1.1//EN" "http://www.w3.org/Graphics/SVG/1.1/DTD/svg11.dtd">
<svg width="100%" height="100%" viewBox="0 0 1230 303" version="1.1" xmlns="http://www.w3.org/2000/svg" xmlns:xlink="http://www.w3.org/1999/xlink" xml:space="preserve" xmlns:serif="http://www.serif.com/" style="fill-rule:evenodd;clip-rule:evenodd;stroke-linecap:round;stroke-linejoin:round;stroke-miterlimit:1.5;">
    <g transform="matrix(1,0,0,1,-324.433,-171.634)">
        <g transform="matrix(1.3921,0,0,1.3921,-359.481,-605.056)">
            <g transform="matrix(288,0,0,288,1399.92,768.633)">
            </g>
            <text x="465.94px" y="768.633px" style="font-family:'Avenir-Roman', 'Avenir', sans-serif;font-size:288px;fill:white;">NG   PI</text>
        </g>
        <g transform="matrix(0.541459,0,0,0.541459,649.012,-69.45)">
            <g>
                <g transform="matrix(0.825313,0,0,0.825313,139.622,126.622)">
                    <path d="M799.271,1011.2L799.271,1058.55C797.372,1058.58 795.47,1058.6 793.565,1058.6C609.364,1058.6 459.816,909.052 459.816,724.851C459.816,540.65 609.364,391.102 793.565,391.102C795.47,391.102 797.372,391.118 799.271,391.15L799.271,438.5C797.642,438.473 796.01,438.459 794.374,438.459C636.31,438.459 507.983,566.787 507.983,724.851C507.983,882.915 636.31,1011.24 794.374,1011.24C796.01,1011.24 797.642,1011.23 799.271,1011.2Z" style="fill:rgb(79,193,234);stroke:rgb(79,193,234);stroke-width:10.07px;"/>
                </g>
                <g transform="matrix(-0.825313,0,0,0.825313,1456.76,126.622)">
                    <path d="M799.271,1011.2L799.271,1058.55C797.372,1058.58 795.47,1058.6 793.565,1058.6C609.364,1058.6 459.816,909.052 459.816,724.851C459.816,540.65 609.364,391.102 793.565,391.102C795.47,391.102 797.372,391.118 799.271,391.15L799.271,438.5C797.642,438.473 796.01,438.459 794.374,438.459C636.31,438.459 507.983,566.787 507.983,724.851C507.983,882.915 636.31,1011.24 794.374,1011.24C796.01,1011.24 797.642,1011.23 799.271,1011.2Z" style="fill:rgb(79,193,234);stroke:rgb(79,193,234);stroke-width:10.07px;"/>
                </g>
                <g transform="matrix(0.660114,0,0,0.660114,271.661,246.367)">
                    <path d="M799.271,1058.55C797.372,1058.58 795.47,1058.6 793.565,1058.6C609.364,1058.6 459.816,909.052 459.816,724.851C459.816,540.65 609.364,391.102 793.565,391.102C795.47,391.102 797.372,391.118 799.271,391.15L799.271,1058.55Z" style="fill:rgb(115,54,21);"/>
                </g>
                <g transform="matrix(-0.660114,0,0,0.660114,1324.72,246.395)">
                    <path d="M799.271,1058.55C797.372,1058.58 795.47,1058.6 793.565,1058.6C609.364,1058.6 459.816,909.052 459.816,724.851C459.816,540.65 609.364,391.102 793.565,391.102C795.47,391.102 797.372,391.118 799.271,391.15L799.271,1058.55Z" style="fill:rgb(57,27,10);"/>
                </g>
                <circle cx="591.055" cy="742.972" r="3.667" style="fill:rgb(57,27,10);"/>
                <circle cx="700.245" cy="613.761" r="5.31" style="fill:rgb(57,27,10);"/>
                <circle cx="670.117" cy="606.347" r="2.356" style="fill:rgb(57,27,10);"/>
                <circle cx="676.369" cy="549.89" r="2.264" style="fill:rgb(57,27,10);"/>
                <ellipse cx="605.453" cy="704.892" rx="2.499" ry="2.401" style="fill:rgb(57,27,10);"/>
                <circle cx="589.766" cy="673.581" r="3.54" style="fill:rgb(57,27,10);"/>
                <circle cx="584.357" cy="701.032" r="1.599" style="fill:rgb(57,27,10);"/>
                <circle cx="583.514" cy="748.62" r="2.367" style="fill:rgb(57,27,10);"/>
                <circle cx="672.996" cy="573.913" r="5.792" style="fill:rgb(57,27,10);"/>
                <circle cx="677.384" cy="593.259" r="3.637" style="fill:rgb(57,27,10);"/>
                <circle cx="647.78" cy="628.293" r="7.123" style="fill:rgb(57,27,10);"/>
                <circle cx="629.978" cy="619.681" r="1.968" style="fill:rgb(57,27,10);"/>
                <circle cx="639.151" cy="597.923" r="1.67" style="fill:rgb(57,27,10);"/>
                <g transform="matrix(1,0,0,1,2.54867,6.43377)">
                    <circle cx="725.86" cy="556.279" r="8.241" style="fill:rgb(57,27,10);"/>
                </g>
                <g transform="matrix(1.15929,0,0,1.25851,-132.619,-133.96)">
                    <circle cx="725.86" cy="556.279" r="8.241" style="fill:rgb(57,27,10);"/>
                </g>
                <g transform="matrix(1,0,0,1,15.1804,-9.76194)">
                    <circle cx="747.881" cy="534.069" r="6.25" style="fill:rgb(57,27,10);"/>
                </g>
                <g transform="matrix(1,0,0,1,11.7955,-0.876707)">
                    <circle cx="728.189" cy="543.015" r="8.585" style="fill:rgb(57,27,10);"/>
                </g>
                <circle cx="702.419" cy="546.838" r="3.487" style="fill:rgb(57,27,10);"/>
                <circle cx="735.775" cy="586.611" r="1.956" style="fill:rgb(57,27,10);"/>
                <circle cx="749.655" cy="564.614" r="3.97" style="fill:rgb(57,27,10);"/>
                <circle cx="720.125" cy="599.071" r="5.502" style="fill:rgb(57,27,10);"/>
                <circle cx="616.745" cy="648.104" r="2.558" style="fill:rgb(57,27,10);"/>
                <circle cx="643.095" cy="665.159" r="4.927" style="fill:rgb(57,27,10);"/>
                <circle cx="611.234" cy="682.509" r="2.266" style="fill:rgb(57,27,10);"/>
                <circle cx="606.084" cy="664.516" r="6.588" style="fill:rgb(57,27,10);"/>
                <circle cx="614.686" cy="639.177" r="5.518" style="fill:rgb(57,27,10);"/>
                <circle cx="617.639" cy="620.092" r="3.588" style="fill:rgb(57,27,10);"/>
                <circle cx="632.107" cy="611.303" r="3.724" style="fill:rgb(57,27,10);"/>
                <ellipse cx="639.36" cy="641.905" rx="2.576" ry="2.53" style="fill:rgb(57,27,10);"/>
                <circle cx="771.726" cy="513.219" r="1.987" style="fill:rgb(57,27,10);"/>
                <g transform="matrix(1,0,0,1,-4.49789,4.91337)">
                    <circle cx="731.759" cy="523.371" r="5.056" style="fill:rgb(57,27,10);"/>
                </g>
                <circle cx="596.245" cy="723.524" r="12.11" style="fill:rgb(57,27,10);"/>
                <g transform="matrix(0.999937,0.0111957,-0.0111957,0.999937,7.79039,-6.64244)">
                    <circle cx="597.182" cy="692.498" r="4.481" style="fill:rgb(57,27,10);"/>
                </g>
                <g transform="matrix(0.660114,0,0,0.660114,271.661,246.367)">
                    <path d="M798.93,391.144C799.043,391.146 799.157,391.148 799.271,391.15L799.271,1058.55C797.372,1058.58 795.47,1058.6 793.565,1058.6C642.904,1058.6 515.426,958.555 473.997,821.332C495.728,702.221 556.139,621.149 657.521,572.194C814.816,496.24 691.478,498.23 798.93,391.144Z" style="fill:rgb(57,27,10);"/>
                </g>
                <g transform="matrix(0.707243,-0.597675,0.917133,1.08526,-534.339,75.1036)">
                    <path d="M353.886,985.872L281.238,985.872C266.505,985.872 254.544,973.911 254.544,959.178C254.544,944.446 266.505,932.485 281.238,932.485L353.886,932.485L353.886,985.872Z" style="fill:rgb(79,193,234);stroke:rgb(79,193,234);stroke-width:10.78px;"/>
                </g>
                <circle cx="693.19" cy="589.976" r="9.219" style="fill:rgb(57,27,10);"/>
                <circle cx="658.222" cy="596.372" r="3.49" style="fill:rgb(57,27,10);"/>
            </g>
        </g>
    </g>
</svg>
